<svg width="19" height="31" viewBox="0 0 19 31" fill="none" xmlns="http://www.w3.org/2000/svg">
<path d="M7.6192 27.0018C8.13994 26.879 11.3131 26.879 11.8338 27.0018C12.279 27.1163 12.7604 27.384 12.7604 27.9685C12.7345 28.5249 12.4415 29.0182 12.0367 29.3315C11.5118 29.7874 10.8958 30.0761 10.2519 30.1802C9.89577 30.2316 9.54584 30.2328 9.20213 30.1802C8.55716 30.0761 7.94117 29.7874 7.41732 29.3303C7.0115 29.0182 6.71851 28.5249 6.69263 27.9685C6.69263 27.384 7.17403 27.1163 7.6192 27.0018ZM9.78799 7.00635C11.9548 7.00635 14.1682 8.15192 15.483 10.0526C16.3361 11.2765 16.7274 12.4993 16.7274 14.4V14.8945C16.7274 16.3521 17.0732 17.2113 17.8341 18.2014C18.4108 18.9309 18.5951 19.8672 18.5951 20.883C18.5951 21.8977 18.2959 22.8609 17.6964 23.6429C16.9117 24.5804 15.805 25.1789 14.6755 25.283C13.0388 25.4384 11.401 25.5693 9.74141 25.5693C8.08083 25.5693 6.44406 25.491 4.8073 25.283C3.67678 25.1789 2.57007 24.5804 1.78637 23.6429C1.18695 22.8609 0.886719 21.8977 0.886719 20.883C0.886719 19.8672 1.07203 18.9309 1.64764 18.2014C2.43238 17.2113 2.75539 16.3521 2.75539 14.8945V14.4C2.75539 12.4478 3.19227 11.1713 4.09192 9.92172C5.4295 8.09932 7.57355 7.00635 9.69482 7.00635H9.78799Z" fill="black" fill-opacity="0.75"/>
<ellipse cx="15.7412" cy="3.01357" rx="2.5" ry="2.78554" fill="#FF0000"/>
</svg>
